HIERARCHY
ROOT Hips
{
	OFFSET 0.000000 0.000000 0.000000
	CHANNELS 6 Xposition Yposition Zposition Xrotation Yrotation Zrotation
	JOINT LeftUpLeg_virtual
	{
		OFFSET 0.000000 0.000000 0.000000
		CHANNELS 3 Xrotation Yrotation Zrotation
		JOINT LeftUpLeg
		{
			OFFSET 11.394100 -6.187798 -0.413800
			CHANNELS 3 Xrotation Yrotation Zrotation
			JOINT LeftLeg
			{
				OFFSET 0.430247 -32.302673 3.732800
				CHANNELS 3 Xrotation Yrotation Zrotation
				JOINT LeftFoot
				{
					OFFSET -0.430247 -48.264931 -6.423300
					CHANNELS 3 Xrotation Yrotation Zrotation
					JOINT LeftToeBase
					{
						OFFSET 4.230900 -16.068199 23.438400
						CHANNELS 3 Xrotation Yrotation Zrotation
						JOINT LeftToe_End
						{
							OFFSET 4.510700 0.695400 19.974600
							CHANNELS 3 Xrotation Yrotation Zrotation
							End Site
							{
								OFFSET 0 0 0
							}
						}
					}
				}
			}
		}
	}
	JOINT RightUpLeg_virtual
	{
		OFFSET 0.000000 0.000000 0.000000
		CHANNELS 3 Xrotation Yrotation Zrotation
		JOINT RightUpLeg
		{
			OFFSET -11.333700 -6.187798 -0.413800
			CHANNELS 3 Xrotation Yrotation Zrotation
			JOINT RightLeg
			{
				OFFSET -0.430392 -32.302628 3.733000
				CHANNELS 3 Xrotation Yrotation Zrotation
				JOINT RightFoot
				{
					OFFSET 0.430392 -48.264973 -6.423500
					CHANNELS 3 Xrotation Yrotation Zrotation
					JOINT RightToeBase
					{
						OFFSET -4.230900 -16.068199 23.438400
						CHANNELS 3 Xrotation Yrotation Zrotation
						JOINT RightToe_End
						{
							OFFSET -4.510700 0.695400 19.974600
							CHANNELS 3 Xrotation Yrotation Zrotation
							End Site
							{
								OFFSET 0 0 0
							}
						}
					}
				}
			}
		}
	}
	JOINT Spine_virtual
	{
		OFFSET 0.000000 0.000000 0.000000
		CHANNELS 3 Xrotation Yrotation Zrotation
		JOINT Spine
		{
			OFFSET -0.002400 12.777504 0.315300
			CHANNELS 3 Xrotation Yrotation Zrotation
			JOINT Spine1
			{
				OFFSET -0.002067 5.816869 0.032633
				CHANNELS 3 Xrotation Yrotation Zrotation
				JOINT Spine1_split
				{
					OFFSET -0.002067 5.816869 0.032633
					CHANNELS 3 Xrotation Yrotation Zrotation
					JOINT Spine2
					{
						OFFSET -0.002067 5.816869 0.032633
						CHANNELS 3 Xrotation Yrotation Zrotation
						JOINT Neck_virtual
						{
							OFFSET 0.000000 0.000000 0.000000
							CHANNELS 3 Xrotation Yrotation Zrotation
							JOINT Neck
							{
								OFFSET -0.003700 21.199493 -0.826900
								CHANNELS 3 Xrotation Yrotation Zrotation
								JOINT Head
								{
									OFFSET 0.000000 20.442200 4.834800
									CHANNELS 3 Xrotation Yrotation Zrotation
									JOINT HeadTop_End
									{
										OFFSET 0.000000 34.668396 4.968400
										CHANNELS 3 Xrotation Yrotation Zrotation
										End Site
										{
											OFFSET 0 0 0
										}
									}
								}
							}
						}
						JOINT LeftShoulder_virtual
						{
							OFFSET 0.000000 0.000000 0.000000
							CHANNELS 3 Xrotation Yrotation Zrotation
							JOINT LeftShoulder
							{
								OFFSET 3.288150 8.794197 -1.372250
								CHANNELS 3 Xrotation Yrotation Zrotation
								JOINT LeftShoulder_split
								{
									OFFSET 3.288150 8.794197 -1.372250
									CHANNELS 3 Xrotation Yrotation Zrotation
									JOINT LeftArm
									{
										OFFSET 11.953299 -2.279007 -0.146200
										CHANNELS 3 Xrotation Yrotation Zrotation
										JOINT LeftForeArm
										{
											OFFSET 18.448900 0.000000 0.000000
											CHANNELS 3 Xrotation Yrotation Zrotation
											JOINT LeftHand
											{
												OFFSET 29.527798 0.000000 0.000000
												CHANNELS 3 Xrotation Yrotation Zrotation
												End Site
												{
													OFFSET 0 0 0
												}
											}
										}
									}
								}
							}
						}
						JOINT RightShoulder_virtual
						{
							OFFSET 0.000000 0.000000 0.000000
							CHANNELS 3 Xrotation Yrotation Zrotation
							JOINT RightShoulder
							{
								OFFSET -3.249400 8.794197 -1.372250
								CHANNELS 3 Xrotation Yrotation Zrotation
								JOINT RightShoulder_split
								{
									OFFSET -3.249400 8.794197 -1.372250
									CHANNELS 3 Xrotation Yrotation Zrotation
									JOINT RightArm
									{
										OFFSET -11.953299 -2.279007 -0.146200
										CHANNELS 3 Xrotation Yrotation Zrotation
										JOINT RightForeArm
										{
											OFFSET -18.448900 0.000000 0.000000
											CHANNELS 3 Xrotation Yrotation Zrotation
											JOINT RightHand
											{
												OFFSET -29.527802 0.000000 0.000000
												CHANNELS 3 Xrotation Yrotation Zrotation
												End Site
												{
													OFFSET 0 0 0
												}
											}
										}
									}
								}
							}
						}
					}
				}
			}
		}
	}
}
MOTION
Frames: 5
Frame Time: 0.03333333
2.022264 98.648163 -15.556282 0.000000 0.000000 0.000000 -5.055240 -16.021597 4.355926 -15.886583 18.381689 9.040246 22.938144 10.261486 3.064312 5.876620 20.435094 -17.747745 -3.008854 -2.113774 1.911335 0.000000 0.000000 0.000000 -4.100243 -17.717459 4.467890 -5.051102 -26.248192 -7.469180 25.588628 8.949061 -5.355354 -20.860695 -22.667738 13.978958 4.513925 2.520723 -33.023159 0.000000 0.000000 0.000000 -3.853317 -14.442891 3.534374 7.896301 -6.003576 -1.676632 1.487133 -0.505768 -0.376005 0.091175 0.203637 -0.042199 0.000000 0.000000 0.000000 2.433846 1.506594 0.246747 3.809914 10.125778 -2.163197 -18.935617 3.631248 -4.333192 0.000000 0.000000 0.000000 1.403928 0.205453 -0.942384 -1.167491 -12.976196 -16.577945 1.817535 -6.523776 0.548301 8.637206 13.854904 -33.258069 43.817870 -84.795269 41.098734 0.000000 0.000000 0.000000 2.210990 0.273266 -0.093812 -5.829836 18.114456 9.055233 1.243352 -3.926618 7.531886 15.449780 32.635272 40.374245 -149.872997 80.338666 150.416584 0.000000 0.000000 0.000000 
1.233178 98.786560 -15.361458 0.000000 0.000000 0.000000 -5.049578 -17.505143 4.196967 -15.479159 18.721928 9.205502 23.170983 10.857932 3.186129 6.219473 21.288877 -17.903625 -4.139942 -2.168758 1.070146 0.000000 0.000000 0.000000 -4.086733 -19.251172 4.319820 -4.645792 -25.950740 -7.187778 24.968392 9.188986 -5.257833 -20.862427 -22.155382 13.512435 4.270075 2.323805 -32.594267 0.000000 0.000000 0.000000 -3.768342 -16.006630 3.410279 7.966995 -5.807724 -1.669916 1.494757 -0.461561 -0.420128 0.087064 0.197793 -0.041897 0.000000 0.000000 0.000000 2.404633 1.544054 0.222694 3.529848 10.143199 -1.881049 -18.647600 3.233896 -4.427852 0.000000 0.000000 0.000000 1.329160 0.253365 -1.003321 -1.187355 -12.861858 -16.629921 1.798774 -6.490482 0.618916 7.787717 12.974995 -33.554858 42.164762 -84.580541 39.431003 0.000000 0.000000 0.000000 2.191142 0.330292 -0.128928 -5.748747 17.947524 8.845643 1.075453 -4.007937 7.375403 15.656645 32.437658 39.997304 -152.414988 79.856851 152.901639 0.000000 0.000000 0.000000 
0.488574 98.976608 -15.131882 0.000000 0.000000 0.000000 -5.034084 -19.070841 4.019155 -15.402030 19.019826 9.410798 23.489434 11.211407 3.229623 6.662353 21.657557 -17.743824 -5.283009 -2.176702 0.240028 0.000000 0.000000 0.000000 -4.090168 -20.739277 4.141402 -4.178164 -25.659216 -6.951925 24.278818 9.327101 -5.061869 -20.773599 -21.559636 13.113850 3.900246 2.177016 -31.845535 0.000000 0.000000 0.000000 -3.672576 -17.494843 3.263714 8.027840 -5.539157 -1.667510 1.506350 -0.406777 -0.466884 0.083276 0.194989 -0.038725 0.000000 0.000000 0.000000 2.388321 1.595679 0.190648 3.236414 10.166944 -1.599580 -18.402626 2.739498 -4.595694 0.000000 0.000000 0.000000 1.253484 0.316987 -1.066455 -1.210646 -12.772017 -16.655444 1.769888 -6.449658 0.658738 6.966572 12.119754 -33.838277 40.657015 -84.421111 37.925045 0.000000 0.000000 0.000000 2.170109 0.399051 -0.167855 -5.684857 17.768638 8.701173 0.913358 -4.086573 7.216948 15.927393 32.138376 39.600190 -154.747061 79.268368 155.178415 0.000000 0.000000 0.000000 
-0.185519 99.226730 -14.844841 0.000000 0.000000 0.000000 -4.999579 -20.671098 3.822473 -15.759167 19.154118 9.632487 23.821637 11.173964 3.232695 7.342339 21.329953 -17.383018 -6.403232 -2.158633 -0.450850 0.000000 0.000000 0.000000 -4.074207 -22.186700 3.940751 -3.668788 -25.328696 -6.776708 23.528052 9.380334 -4.794873 -20.479632 -20.896228 12.905129 3.294172 2.133658 -30.863388 0.000000 0.000000 0.000000 -3.561140 -18.945934 3.100959 8.078143 -5.207419 -1.652768 1.521547 -0.346261 -0.512539 0.082206 0.193241 -0.033716 0.000000 0.000000 0.000000 2.384993 1.656259 0.153750 2.939425 10.206072 -1.329850 -18.230166 2.159173 -4.831416 0.000000 0.000000 0.000000 1.176650 0.389878 -1.129300 -1.236850 -12.717641 -16.657730 1.739700 -6.366766 0.655602 6.221318 11.325143 -34.098449 39.266232 -84.314765 36.547065 0.000000 0.000000 0.000000 2.148728 0.473510 -0.210137 -5.638811 17.588053 8.624872 0.772272 -4.169339 7.061202 16.276016 31.788260 39.158817 -156.735083 78.601878 157.117492 0.000000 0.000000 0.000000 
-0.779693 99.559769 -14.527802 0.000000 0.000000 0.000000 -4.915567 -22.225097 3.620492 -16.557581 19.038165 9.779679 24.037647 10.699152 3.256954 8.221447 20.233836 -16.838178 -7.351946 -2.118563 -0.994169 0.000000 0.000000 0.000000 -4.016019 -23.602340 3.728451 -3.079152 -24.918480 -6.626071 22.680111 9.337716 -4.481922 -20.105753 -20.193123 12.801998 2.694305 2.155024 -29.694401 0.000000 0.000000 0.000000 -3.396088 -20.370850 2.922114 8.109921 -4.824686 -1.612063 1.536772 -0.279561 -0.554409 0.082088 0.194313 -0.028516 0.000000 0.000000 0.000000 2.393834 1.720326 0.114738 2.649994 10.269411 -1.079616 -18.155415 1.502299 -5.122735 0.000000 0.000000 0.000000 1.102625 0.467680 -1.190760 -1.264842 -12.707248 -16.643641 1.692859 -6.193787 0.592991 5.581125 10.604316 -34.320710 37.923485 -84.246504 35.222182 0.000000 0.000000 0.000000 2.124217 0.549230 -0.254631 -5.612649 17.414395 8.621928 0.651895 -4.263331 6.902295 16.694280 31.444190 38.668313 -158.270291 77.917336 158.615939 0.000000 0.000000 0.000000 
